<?xml version="1.0" encoding="UTF-8" standalone="no"?>
<!-- Created with Inkscape (http://www.inkscape.org/) -->

<svg
   xmlns:dc="http://purl.org/dc/elements/1.1/"
   xmlns:cc="http://creativecommons.org/ns#"
   xmlns:rdf="http://www.w3.org/1999/02/22-rdf-syntax-ns#"
   xmlns:svg="http://www.w3.org/2000/svg"
   xmlns="http://www.w3.org/2000/svg"
   xmlns:sodipodi="http://sodipodi.sourceforge.net/DTD/sodipodi-0.dtd"
   xmlns:inkscape="http://www.inkscape.org/namespaces/inkscape"
   width="135.51996mm"
   height="115.12038mm"
   viewBox="0 0 135.51996 115.12038"
   version="1.1"
   id="svg8"
   inkscape:version="0.92.3 (2405546, 2018-03-11)"
   sodipodi:docname="delivery_active.svg">
  <defs
     id="defs2" />
  <sodipodi:namedview
     id="base"
     pagecolor="#ffffff"
     bordercolor="#666666"
     borderopacity="1.0"
     inkscape:pageopacity="0.0"
     inkscape:pageshadow="2"
     inkscape:zoom="0.35"
     inkscape:cx="2724.6721"
     inkscape:cy="120.40746"
     inkscape:document-units="mm"
     inkscape:current-layer="layer1"
     showgrid="false"
     inkscape:window-width="3840"
     inkscape:window-height="2066"
     inkscape:window-x="-11"
     inkscape:window-y="-11"
     inkscape:window-maximized="1" />
  <metadata
     id="metadata5">
    <rdf:RDF>
      <cc:Work
         rdf:about="">
        <dc:format>image/svg+xml</dc:format>
        <dc:type
           rdf:resource="http://purl.org/dc/dcmitype/StillImage" />
        <dc:title></dc:title>
      </cc:Work>
    </rdf:RDF>
  </metadata>
  <g
     inkscape:label="Layer 1"
     inkscape:groupmode="layer"
     id="layer1"
     transform="translate(767.77188,-65.570764)">
    <g
       id="g843"
       transform="matrix(0.26458333,0,0,0.26458333,-767.7715,55.49031)"
       style="fill:#ffffff">
      <path
         id="path815"
         d="M 230,116.5 C 190.2,88.7 143,73.2 94.4,72.1 89.8,71.9 85.3,73.6 82,76.8 78.6,80.1 76.7,84.5 76.7,89.2 V 294 c -0.1,7.4 4.6,13.9 11.6,16.2 1.8,0.6 3.7,0.9 5.6,0.9 5.2,0 10.2,-2.5 13.3,-6.7 l 20.6,-26.7 v 24.7 c 0,14.1 11.5,25.6 25.6,25.6 14.1,0 25.6,-11.5 25.6,-25.6 v -10.1 c 2.7,1 5.6,1.5 8.5,1.6 14.1,-0.1 25.5,-11.5 25.6,-25.6 V 167.6 l 3.8,-4.9 c 0,0 0.1,-0.1 0.1,-0.1 l 16.1,-21.7 c 2.8,-3.7 4.1,-8.4 3.4,-13 -0.3,-4.6 -2.7,-8.7 -6.5,-11.4 z M 93.9,148.9 c 9.4,0 17.1,7.6 17.1,17.1 0,9.5 -7.6,17.1 -17.1,17.1 z m 102.4,119.5 c 0,2.3 -0.9,4.5 -2.6,6.1 -1.6,1.6 -3.7,2.5 -5.9,2.5 -4.7,0 -8.5,-3.8 -8.5,-8.5 v -8.3 c 0,-4.7 -3.8,-8.5 -8.5,-8.5 -4.7,0 -8.5,3.8 -8.5,8.5 v 42.4 c 0,4.7 -3.8,8.5 -8.5,8.5 -4.7,0 -8.5,-3.8 -8.5,-8.5 V 254 c 0,-2.6 -1.2,-5 -3.3,-6.6 -0.2,-0.2 -0.3,-0.4 -0.5,-0.6 -3.7,-2.9 -9.1,-2.2 -11.9,1.5 L 93.9,294 v -93.9 c 18.9,0 34.1,-15.3 34.1,-34.1 0,-18.8 -15.3,-34.1 -34.1,-34.1 v -8.4 c 37.5,1.5 73.8,13.9 104.5,35.7 l -0.3,0.4 c -1.1,1.5 -1.7,3.4 -1.7,5.2 h -0.1 z M 208.6,145.7 C 175,121.7 135.1,108.1 93.9,106.6 V 89.2 c 45.2,0.9 89.1,15.3 126,41.3 z"
         inkscape:connector-curvature="0"
         style="fill:#ffffff" />
      <path
         id="path817"
         d="m 128,225.7 c 0,4.7 -3.8,8.5 -8.5,8.5 -4.7,0 -8.5,-3.8 -8.5,-8.5 0,-4.7 3.8,-8.5 8.5,-8.5 4.7,0 8.5,3.8 8.5,8.5 z"
         inkscape:connector-curvature="0"
         style="fill:#ffffff" />
      <path
         id="path819"
         d="m 153.6,157.5 c 0,4.7 -3.8,8.5 -8.5,8.5 -4.7,0 -8.5,-3.8 -8.5,-8.5 0,-4.7 3.8,-8.5 8.5,-8.5 4.7,-0.1 8.5,3.8 8.5,8.5 z"
         inkscape:connector-curvature="0"
         style="fill:#ffffff" />
      <path
         id="path821"
         d="m 17.1,473.2 c 4.7,0 8.5,-3.8 8.5,-8.5 0,-4.7 -3.8,-8.5 -8.5,-8.5 H 8.5 c -4.7,0 -8.5,3.8 -8.5,8.5 0,4.7 3.8,8.5 8.5,8.5 z"
         inkscape:connector-curvature="0"
         style="fill:#ffffff" />
      <path
         id="path823"
         d="m 290.1,473.2 c 4.7,0 8.5,-3.8 8.5,-8.5 0,-4.7 -3.8,-8.5 -8.5,-8.5 h -8.5 c -4.7,0 -8.5,3.8 -8.5,8.5 0,4.7 3.8,8.5 8.5,8.5 z"
         inkscape:connector-curvature="0"
         style="fill:#ffffff" />
      <path
         id="path825"
         d="M 503.5,302.5 H 415.4 L 370.6,190.6 c -3.9,-9.7 -13.3,-16.1 -23.8,-16.1 H 298.6 V 88.9 c 0,-7.8 -3.5,-15.1 -9.6,-20 L 257.3,43.6 C 252.8,40 247.2,38.1 241.4,38.1 H 25.6 C 11.5,38 0,49.5 0,63.6 V 388 c -0.1,7.7 5,14.4 12.4,16.4 l 26.8,8.5 c 0.8,0.3 1.7,0.4 2.6,0.4 l 27.3,0.1 c -2.7,15.3 1.8,31.1 12.3,42.6 H 51.2 c -4.7,0 -8.5,3.8 -8.5,8.5 0,4.7 3.8,8.5 8.5,8.5 h 68.3 c 15.1,0.1 29.4,-6.5 39.2,-18 9.8,-11.5 13.9,-26.7 11.3,-41.6 h 172.2 c -0.5,2.8 -0.7,5.6 -0.8,8.4 0,12.6 4.7,24.8 13.1,34.1 h -30.2 c -4.7,0 -8.5,3.8 -8.5,8.5 0,4.7 3.8,8.5 8.5,8.5 h 68.3 c 15.1,0.1 29.4,-6.5 39.2,-18.1 9.8,-11.6 13.9,-26.8 11.3,-41.6 h 27 c 0.9,0 1.7,-0.1 2.6,-0.4 l 25.6,-8.2 c 8.1,-1.6 13.9,-8.7 13.9,-16.9 v -76.8 c -0.2,-4.5 -4,-8.4 -8.7,-8.4 z m -8.6,17.1 -0.1,17.1 h -17 V 319.6 Z M 298.7,225.7 h 67.6 l 30.7,76.8 h -98.3 z m 56.1,-28.7 4.7,11.7 h -60.8 v -17.1 h 48.2 c 3.4,0 6.6,2.1 7.9,5.4 z M 17.1,302.5 34.2,315.3 v 17.1 L 17.1,345.2 Z M 119.5,456 c -18.9,0 -34.1,-15.3 -34.1,-34.1 0,-18.8 15.3,-34.1 34.1,-34.1 18.8,0 34.1,15.3 34.1,34.1 0,18.8 -15.3,34.1 -34.1,34.1 z m 0,-85.3 c -18.3,0 -35.3,9.8 -44.4,25.7 l -32,-0.1 -26,-8.3 v -21.4 l 27.3,-20.5 c 4.3,-3.2 6.8,-8.3 6.8,-13.7 v -17.1 c 0,-5.4 -2.5,-10.4 -6.8,-13.7 L 17.1,281.1 V 63.6 c 0,-4.7 3.8,-8.5 8.5,-8.5 h 215.9 c 1.9,0 3.8,0.7 5.3,1.9 l 31.6,25.2 c 2,1.6 3.2,4.1 3.2,6.7 v 222.2 c 0,0.9 0.1,1.7 0.4,2.6 l 15.3,47.6 c 0.1,0.4 0.3,0.8 0.5,1.2 0.6,1.2 0.9,2.5 0.9,3.8 v 30.2 H 163.8 c -9.1,-16 -26,-25.8 -44.3,-25.8 z m 273,85.3 c -18.9,0 -34.1,-15.3 -34.1,-34.1 0,-18.8 15.3,-34.1 34.1,-34.1 18.8,0 34.1,15.3 34.1,34.1 0,18.8 -15.2,34.1 -34.1,34.1 z m 100.9,-67.6 -24.8,8 h -31.8 c -9.1,-15.9 -26,-25.7 -44.4,-25.7 -18.3,0 -35.2,9.8 -44.3,25.8 h -32.4 v -30.1 c 0,-3.7 -0.8,-7.4 -2.4,-10.8 l -11.5,-35.9 h 159 v 17.1 c 0,9.4 7.6,17.1 17.1,17.1 h 16.9 l -0.1,34.3 c -0.4,-0.1 -0.8,0 -1.3,0.2 z"
         inkscape:connector-curvature="0"
         style="fill:#ffffff" />
      <path
         id="path827"
         d="m 162.1,174.5 c -14.1,0 -25.6,11.5 -25.6,25.6 0,14.1 11.5,25.6 25.6,25.6 14.1,0 25.6,-11.5 25.6,-25.6 0,-14.1 -11.4,-25.6 -25.6,-25.6 z m 0,34.2 c -4.7,0 -8.5,-3.8 -8.5,-8.5 0,-4.7 3.8,-8.5 8.5,-8.5 4.7,0 8.5,3.8 8.5,8.5 0.1,4.6 -3.8,8.5 -8.5,8.5 z"
         inkscape:connector-curvature="0"
         style="fill:#ffffff" />
    </g>
  </g>
</svg>
