<?xml version="1.0" encoding="utf-8"?>
<!-- Generator: Adobe Illustrator 22.1.0, SVG Export Plug-In . SVG Version: 6.00 Build 0)  -->
<svg version="1.1" id="Warstwa_1" xmlns="http://www.w3.org/2000/svg" xmlns:xlink="http://www.w3.org/1999/xlink" x="0px" y="0px"
	 viewBox="0 0 512 512" style="enable-background:new 0 0 512 512;" xml:space="preserve">
<path d="M230,116.5c-39.8-27.8-87-43.3-135.6-44.4c-4.6-0.2-9.1,1.5-12.4,4.7c-3.4,3.3-5.3,7.7-5.3,12.4V294
	c-0.1,7.4,4.6,13.9,11.6,16.2c1.8,0.6,3.7,0.9,5.6,0.9c5.2,0,10.2-2.5,13.3-6.7l20.6-26.7v24.7c0,14.1,11.5,25.6,25.6,25.6
	c14.1,0,25.6-11.5,25.6-25.6v-10.1c2.7,1,5.6,1.5,8.5,1.6c14.1-0.1,25.5-11.5,25.6-25.6V167.6l3.8-4.9c0,0,0.1-0.1,0.1-0.1
	l16.1-21.7c2.8-3.7,4.1-8.4,3.4-13C236.2,123.3,233.8,119.2,230,116.5z M93.9,148.9c9.4,0,17.1,7.6,17.1,17.1s-7.6,17.1-17.1,17.1
	V148.9z M196.3,268.4c0,2.3-0.9,4.5-2.6,6.1c-1.6,1.6-3.7,2.5-5.9,2.5c-4.7,0-8.5-3.8-8.5-8.5v-8.3c0-4.7-3.8-8.5-8.5-8.5
	c-4.7,0-8.5,3.8-8.5,8.5v42.4c0,4.7-3.8,8.5-8.5,8.5c-4.7,0-8.5-3.8-8.5-8.5V254c0-2.6-1.2-5-3.3-6.6c-0.2-0.2-0.3-0.4-0.5-0.6
	c-3.7-2.9-9.1-2.2-11.9,1.5L93.9,294v-93.9c18.9,0,34.1-15.3,34.1-34.1s-15.3-34.1-34.1-34.1v-8.4c37.5,1.5,73.8,13.9,104.5,35.7
	l-0.3,0.4c-1.1,1.5-1.7,3.4-1.7,5.2h-0.1V268.4z M208.6,145.7c-33.6-24-73.5-37.6-114.7-39.1V89.2c45.2,0.9,89.1,15.3,126,41.3
	L208.6,145.7z"/>
<path d="M128,225.7c0,4.7-3.8,8.5-8.5,8.5c-4.7,0-8.5-3.8-8.5-8.5c0-4.7,3.8-8.5,8.5-8.5C124.2,217.2,128,221,128,225.7z"/>
<path d="M153.6,157.5c0,4.7-3.8,8.5-8.5,8.5c-4.7,0-8.5-3.8-8.5-8.5c0-4.7,3.8-8.5,8.5-8.5C149.8,148.9,153.6,152.8,153.6,157.5z"/>
<path d="M17.1,473.2c4.7,0,8.5-3.8,8.5-8.5c0-4.7-3.8-8.5-8.5-8.5H8.5c-4.7,0-8.5,3.8-8.5,8.5c0,4.7,3.8,8.5,8.5,8.5H17.1z"/>
<path d="M290.1,473.2c4.7,0,8.5-3.8,8.5-8.5c0-4.7-3.8-8.5-8.5-8.5h-8.5c-4.7,0-8.5,3.8-8.5,8.5c0,4.7,3.8,8.5,8.5,8.5H290.1z"/>
<path d="M503.5,302.5h-88.1l-44.8-111.9c-3.9-9.7-13.3-16.1-23.8-16.1h-48.2V88.9c0-7.8-3.5-15.1-9.6-20l-31.7-25.3
	c-4.5-3.6-10.1-5.5-15.9-5.5H25.6C11.5,38,0,49.5,0,63.6V388c-0.1,7.7,5,14.4,12.4,16.4l26.8,8.5c0.8,0.3,1.7,0.4,2.6,0.4l27.3,0.1
	c-2.7,15.3,1.8,31.1,12.3,42.6H51.2c-4.7,0-8.5,3.8-8.5,8.5s3.8,8.5,8.5,8.5h68.3c15.1,0.1,29.4-6.5,39.2-18s13.9-26.7,11.3-41.6
	h172.2c-0.5,2.8-0.7,5.6-0.8,8.4c0,12.6,4.7,24.8,13.1,34.1h-30.2c-4.7,0-8.5,3.8-8.5,8.5s3.8,8.5,8.5,8.5h68.3
	c15.1,0.1,29.4-6.5,39.2-18.1s13.9-26.8,11.3-41.6h27c0.9,0,1.7-0.1,2.6-0.4l25.6-8.2c8.1-1.6,13.9-8.7,13.9-16.9v-76.8
	C512,306.4,508.2,302.5,503.5,302.5z M494.9,319.6l-0.1,17.1h-17v-17.1H494.9z M298.7,225.7h67.6l30.7,76.8h-98.3V225.7z M354.8,197
	l4.7,11.7h-60.8v-17.1h48.2C350.3,191.6,353.5,193.7,354.8,197z M17.1,302.5l17.1,12.8v17.1l-17.1,12.8V302.5z M119.5,456
	c-18.9,0-34.1-15.3-34.1-34.1s15.3-34.1,34.1-34.1s34.1,15.3,34.1,34.1S138.3,456,119.5,456z M119.5,370.7
	c-18.3,0-35.3,9.8-44.4,25.7l-32-0.1L17.1,388v-21.4l27.3-20.5c4.3-3.2,6.8-8.3,6.8-13.7v-17.1c0-5.4-2.5-10.4-6.8-13.7l-27.3-20.5
	V63.6c0-4.7,3.8-8.5,8.5-8.5h215.9c1.9,0,3.8,0.7,5.3,1.9l31.6,25.2c2,1.6,3.2,4.1,3.2,6.7v222.2c0,0.9,0.1,1.7,0.4,2.6l15.3,47.6
	c0.1,0.4,0.3,0.8,0.5,1.2c0.6,1.2,0.9,2.5,0.9,3.8v30.2H163.8C154.7,380.5,137.8,370.7,119.5,370.7z M392.5,456
	c-18.9,0-34.1-15.3-34.1-34.1s15.3-34.1,34.1-34.1s34.1,15.3,34.1,34.1S411.4,456,392.5,456z M493.4,388.4l-24.8,8h-31.8
	c-9.1-15.9-26-25.7-44.4-25.7c-18.3,0-35.2,9.8-44.3,25.8h-32.4v-30.1c0-3.7-0.8-7.4-2.4-10.8l-11.5-35.9h159v17.1
	c0,9.4,7.6,17.1,17.1,17.1h16.9l-0.1,34.3C494.3,388.1,493.9,388.2,493.4,388.4z"/>
<path d="M162.1,174.5c-14.1,0-25.6,11.5-25.6,25.6c0,14.1,11.5,25.6,25.6,25.6c14.1,0,25.6-11.5,25.6-25.6
	C187.7,186,176.3,174.5,162.1,174.5z M162.1,208.7c-4.7,0-8.5-3.8-8.5-8.5c0-4.7,3.8-8.5,8.5-8.5c4.7,0,8.5,3.8,8.5,8.5
	C170.7,204.8,166.8,208.7,162.1,208.7z"/>
</svg>
