<?xml version="1.0" encoding="UTF-8" standalone="no"?>
<!-- Created with Inkscape (http://www.inkscape.org/) -->

<svg
   xmlns:dc="http://purl.org/dc/elements/1.1/"
   xmlns:cc="http://creativecommons.org/ns#"
   xmlns:rdf="http://www.w3.org/1999/02/22-rdf-syntax-ns#"
   xmlns:svg="http://www.w3.org/2000/svg"
   xmlns="http://www.w3.org/2000/svg"
   xmlns:sodipodi="http://sodipodi.sourceforge.net/DTD/sodipodi-0.dtd"
   xmlns:inkscape="http://www.inkscape.org/namespaces/inkscape"
   width="86.677498mm"
   height="108.34687mm"
   viewBox="0 0 86.677498 108.34687"
   version="1.1"
   id="svg851"
   inkscape:version="0.92.3 (2405546, 2018-03-11)"
   sodipodi:docname="menu_active.svg">
  <defs
     id="defs845" />
  <sodipodi:namedview
     id="base"
     pagecolor="#ffffff"
     bordercolor="#666666"
     borderopacity="1.0"
     inkscape:pageopacity="0.0"
     inkscape:pageshadow="2"
     inkscape:zoom="0.35"
     inkscape:cx="2343.8"
     inkscape:cy="-480.96429"
     inkscape:document-units="mm"
     inkscape:current-layer="layer1"
     showgrid="false"
     inkscape:window-width="3840"
     inkscape:window-height="2066"
     inkscape:window-x="-11"
     inkscape:window-y="-11"
     inkscape:window-maximized="1" />
  <metadata
     id="metadata848">
    <rdf:RDF>
      <cc:Work
         rdf:about="">
        <dc:format>image/svg+xml</dc:format>
        <dc:type
           rdf:resource="http://purl.org/dc/dcmitype/StillImage" />
        <dc:title></dc:title>
      </cc:Work>
    </rdf:RDF>
  </metadata>
  <g
     inkscape:label="Layer 1"
     inkscape:groupmode="layer"
     id="layer1"
     transform="translate(514.29708,86.768675)">
    <g
       id="g1004"
       transform="matrix(0.26458333,0,0,0.26458333,-525.145,-86.768675)"
       style="fill:#ffffff">
      <g
         id="g857"
         style="fill:#ffffff">
	<g
   id="g855"
   style="fill:#ffffff">
		<path
   id="path853"
   d="M 173.5,0 H 47.8 C 44,0 41,3.1 41,6.8 v 375.5 c 0,3.8 3.1,6.8 6.8,6.8 h 157 c 3.8,0 6.8,-3.1 6.8,-6.8 V 38.1 C 211.6,17.1 194.5,0 173.5,0 Z M 198,375.5 H 54.6 V 13.7 h 118.9 c 13.5,0 24.5,11 24.5,24.5 z"
   inkscape:connector-curvature="0"
   style="fill:#ffffff" />

	</g>

</g>
      <g
         id="g863"
         style="fill:#ffffff">
	<g
   id="g861"
   style="fill:#ffffff">
		<path
   id="path859"
   d="M 361.8,0 H 236.1 C 215.1,0 198,17.1 198,38.1 v 344.1 c 0,3.8 3.1,6.8 6.8,6.8 h 157 c 3.8,0 6.8,-3.1 6.8,-6.8 V 6.8 c 0,-3.7 -3,-6.8 -6.8,-6.8 z M 355,375.5 H 211.6 V 38.1 c 0,-13.5 11,-24.5 24.5,-24.5 H 355 Z"
   inkscape:connector-curvature="0"
   style="fill:#ffffff" />

	</g>

</g>
      <g
         id="g869"
         style="fill:#ffffff">
	<g
   id="g867"
   style="fill:#ffffff">
		<path
   id="path865"
   d="m 361.8,395.9 h -314 c -3.8,0 -6.8,3.1 -6.8,6.8 0,3.7 3.1,6.8 6.8,6.8 h 314 c 3.8,0 6.8,-3.1 6.8,-6.8 0,-3.7 -3,-6.8 -6.8,-6.8 z"
   inkscape:connector-curvature="0"
   style="fill:#ffffff" />

	</g>

</g>
      <g
         id="g875"
         style="fill:#ffffff">
	<g
   id="g873"
   style="fill:#ffffff">
		<path
   id="path871"
   d="M 334.5,34.1 H 232.1 c -3.8,0 -6.8,3.1 -6.8,6.8 0,3.7 3.1,6.8 6.8,6.8 h 102.4 c 3.8,0 6.8,-3.1 6.8,-6.8 0,-3.7 -3,-6.8 -6.8,-6.8 z"
   inkscape:connector-curvature="0"
   style="fill:#ffffff" />

	</g>

</g>
      <g
         id="g881"
         style="fill:#ffffff">
	<g
   id="g879"
   style="fill:#ffffff">
		<path
   id="path877"
   d="M 334.5,68.3 H 232.1 c -3.8,0 -6.8,3.1 -6.8,6.8 0,3.7 3.1,6.8 6.8,6.8 h 102.4 c 3.8,0 6.8,-3.1 6.8,-6.8 0,-3.7 -3,-6.8 -6.8,-6.8 z"
   inkscape:connector-curvature="0"
   style="fill:#ffffff" />

	</g>

</g>
      <g
         id="g887"
         style="fill:#ffffff">
	<g
   id="g885"
   style="fill:#ffffff">
		<path
   id="path883"
   d="M 334.5,102.4 H 232.1 c -3.8,0 -6.8,3.1 -6.8,6.8 0,3.8 3.1,6.8 6.8,6.8 h 102.4 c 3.8,0 6.8,-3.1 6.8,-6.8 0,-3.7 -3,-6.8 -6.8,-6.8 z"
   inkscape:connector-curvature="0"
   style="fill:#ffffff" />

	</g>

</g>
      <g
         id="g893"
         style="fill:#ffffff">
	<g
   id="g891"
   style="fill:#ffffff">
		<path
   id="path889"
   d="M 334.5,273.1 H 232.1 c -3.8,0 -6.8,3.1 -6.8,6.8 0,3.7 3.1,6.8 6.8,6.8 h 102.4 c 3.8,0 6.8,-3.1 6.8,-6.8 0,-3.7 -3,-6.8 -6.8,-6.8 z"
   inkscape:connector-curvature="0"
   style="fill:#ffffff" />

	</g>

</g>
      <g
         id="g899"
         style="fill:#ffffff">
	<g
   id="g897"
   style="fill:#ffffff">
		<path
   id="path895"
   d="m 286.7,232.1 h -54.6 c -3.8,0 -6.8,3.1 -6.8,6.8 0,3.7 3.1,6.8 6.8,6.8 h 54.6 c 3.8,0 6.8,-3.1 6.8,-6.8 0,-3.7 -3,-6.8 -6.8,-6.8 z"
   inkscape:connector-curvature="0"
   style="fill:#ffffff" />

	</g>

</g>
      <g
         id="g905"
         style="fill:#ffffff">
	<g
   id="g903"
   style="fill:#ffffff">
		<path
   id="path901"
   d="M 334.5,136.5 H 232.1 c -3.8,0 -6.8,3.1 -6.8,6.8 0,3.7 3.1,6.8 6.8,6.8 h 102.4 c 3.8,0 6.8,-3.1 6.8,-6.8 0,-3.7 -3,-6.8 -6.8,-6.8 z"
   inkscape:connector-curvature="0"
   style="fill:#ffffff" />

	</g>

</g>
      <g
         id="g911"
         style="fill:#ffffff">
	<g
   id="g909"
   style="fill:#ffffff">
		<path
   id="path907"
   d="M 334.5,293.5 H 232.1 c -3.8,0 -6.8,3.1 -6.8,6.8 0,3.7 3.1,6.8 6.8,6.8 h 102.4 c 3.8,0 6.8,-3.1 6.8,-6.8 0,-3.7 -3,-6.8 -6.8,-6.8 z"
   inkscape:connector-curvature="0"
   style="fill:#ffffff" />

	</g>

</g>
      <g
         id="g917"
         style="fill:#ffffff">
	<g
   id="g915"
   style="fill:#ffffff">
		<path
   id="path913"
   d="M 334.5,157 H 232.1 c -3.8,0 -6.8,3.1 -6.8,6.8 0,3.8 3.1,6.8 6.8,6.8 h 102.4 c 3.8,0 6.8,-3.1 6.8,-6.8 0,-3.7 -3,-6.8 -6.8,-6.8 z"
   inkscape:connector-curvature="0"
   style="fill:#ffffff" />

	</g>

</g>
      <g
         id="g923"
         style="fill:#ffffff">
	<g
   id="g921"
   style="fill:#ffffff">
		<path
   id="path919"
   d="M 334.5,177.5 H 232.1 c -3.8,0 -6.8,3.1 -6.8,6.8 0,3.7 3.1,6.8 6.8,6.8 h 102.4 c 3.8,0 6.8,-3.1 6.8,-6.8 0,-3.7 -3,-6.8 -6.8,-6.8 z"
   inkscape:connector-curvature="0"
   style="fill:#ffffff" />

	</g>

</g>
      <g
         id="g929"
         style="fill:#ffffff">
	<g
   id="g927"
   style="fill:#ffffff">
		<path
   id="path925"
   d="m 95.6,109.2 c -3.8,0 -6.8,3.1 -6.8,6.8 v 191.1 c 0,3.8 3.1,6.8 6.8,6.8 3.7,0 6.8,-3.1 6.8,-6.8 v -191 c 0,-3.8 -3.1,-6.9 -6.8,-6.9 z"
   inkscape:connector-curvature="0"
   style="fill:#ffffff" />

	</g>

</g>
      <g
         id="g935"
         style="fill:#ffffff">
	<g
   id="g933"
   style="fill:#ffffff">
		<path
   id="path931"
   d="m 163.8,109.2 c -3.8,0 -6.8,3.1 -6.8,6.8 v 191.1 c 0,3.8 3.1,6.8 6.8,6.8 3.7,0 6.8,-3.1 6.8,-6.8 v -191 c 0.1,-3.8 -3,-6.9 -6.8,-6.9 z"
   inkscape:connector-curvature="0"
   style="fill:#ffffff" />

	</g>

</g>
      <g
         id="g941"
         style="fill:#ffffff">
	<g
   id="g939"
   style="fill:#ffffff">
		<path
   id="path937"
   d="m 116.1,109.2 c -3.8,0 -6.8,3.1 -6.8,6.8 v 34.1 c 0,7.5 -6.1,13.7 -13.7,13.7 -7.6,0 -13.7,-6.1 -13.7,-13.7 V 116 c 0,-3.8 -3.1,-6.8 -6.8,-6.8 -3.7,0 -6.8,3.1 -6.8,6.8 v 34.1 c 0,15.1 12.2,27.3 27.3,27.3 15.1,0 27.3,-12.2 27.3,-27.3 V 116 c 0,-3.7 -3.1,-6.8 -6.8,-6.8 z"
   inkscape:connector-curvature="0"
   style="fill:#ffffff" />

	</g>

</g>
      <g
         id="g947"
         style="fill:#ffffff">
	<g
   id="g945"
   style="fill:#ffffff">
		<path
   id="path943"
   d="m 163.8,109.2 c -15.1,0 -27.3,12.2 -27.3,27.3 v 81.9 c 0,3.8 3.1,6.8 6.8,6.8 h 20.5 c 3.8,0 6.8,-3.1 6.8,-6.8 V 116.1 c 0.1,-3.8 -3,-6.9 -6.8,-6.9 z M 157,211.6 h -6.8 v -75.1 c 0,-5 2.7,-9.5 6.8,-11.8 z"
   inkscape:connector-curvature="0"
   style="fill:#ffffff" />

	</g>

</g>
    </g>
  </g>
</svg>
