<?xml version="1.0" encoding="utf-8"?>
<!-- Generator: Adobe Illustrator 22.1.0, SVG Export Plug-In . SVG Version: 6.00 Build 0)  -->
<svg version="1.1" id="Capa_1" xmlns="http://www.w3.org/2000/svg" xmlns:xlink="http://www.w3.org/1999/xlink" x="0px" y="0px"
	 viewBox="0 0 409.6 409.6" style="enable-background:new 0 0 409.6 409.6;" xml:space="preserve">
<g>
	<g>
		<path d="M173.5,0H47.8C44,0,41,3.1,41,6.8v375.5c0,3.8,3.1,6.8,6.8,6.8h157c3.8,0,6.8-3.1,6.8-6.8V38.1
			C211.6,17.1,194.5,0,173.5,0z M198,375.5H54.6V13.7h118.9c13.5,0,24.5,11,24.5,24.5V375.5z"/>
	</g>
</g>
<g>
	<g>
		<path d="M361.8,0H236.1c-21,0-38.1,17.1-38.1,38.1v344.1c0,3.8,3.1,6.8,6.8,6.8h157c3.8,0,6.8-3.1,6.8-6.8V6.8
			C368.6,3.1,365.6,0,361.8,0z M355,375.5H211.6V38.1c0-13.5,11-24.5,24.5-24.5H355V375.5z"/>
	</g>
</g>
<g>
	<g>
		<path d="M361.8,395.9h-314c-3.8,0-6.8,3.1-6.8,6.8s3.1,6.8,6.8,6.8h314c3.8,0,6.8-3.1,6.8-6.8C368.6,399,365.6,395.9,361.8,395.9z
			"/>
	</g>
</g>
<g>
	<g>
		<path d="M334.5,34.1H232.1c-3.8,0-6.8,3.1-6.8,6.8s3.1,6.8,6.8,6.8h102.4c3.8,0,6.8-3.1,6.8-6.8C341.3,37.2,338.3,34.1,334.5,34.1
			z"/>
	</g>
</g>
<g>
	<g>
		<path d="M334.5,68.3H232.1c-3.8,0-6.8,3.1-6.8,6.8s3.1,6.8,6.8,6.8h102.4c3.8,0,6.8-3.1,6.8-6.8S338.3,68.3,334.5,68.3z"/>
	</g>
</g>
<g>
	<g>
		<path d="M334.5,102.4H232.1c-3.8,0-6.8,3.1-6.8,6.8c0,3.8,3.1,6.8,6.8,6.8h102.4c3.8,0,6.8-3.1,6.8-6.8
			C341.3,105.5,338.3,102.4,334.5,102.4z"/>
	</g>
</g>
<g>
	<g>
		<path d="M334.5,273.1H232.1c-3.8,0-6.8,3.1-6.8,6.8s3.1,6.8,6.8,6.8h102.4c3.8,0,6.8-3.1,6.8-6.8S338.3,273.1,334.5,273.1z"/>
	</g>
</g>
<g>
	<g>
		<path d="M286.7,232.1h-54.6c-3.8,0-6.8,3.1-6.8,6.8s3.1,6.8,6.8,6.8h54.6c3.8,0,6.8-3.1,6.8-6.8S290.5,232.1,286.7,232.1z"/>
	</g>
</g>
<g>
	<g>
		<path d="M334.5,136.5H232.1c-3.8,0-6.8,3.1-6.8,6.8s3.1,6.8,6.8,6.8h102.4c3.8,0,6.8-3.1,6.8-6.8S338.3,136.5,334.5,136.5z"/>
	</g>
</g>
<g>
	<g>
		<path d="M334.5,293.5H232.1c-3.8,0-6.8,3.1-6.8,6.8s3.1,6.8,6.8,6.8h102.4c3.8,0,6.8-3.1,6.8-6.8S338.3,293.5,334.5,293.5z"/>
	</g>
</g>
<g>
	<g>
		<path d="M334.5,157H232.1c-3.8,0-6.8,3.1-6.8,6.8c0,3.8,3.1,6.8,6.8,6.8h102.4c3.8,0,6.8-3.1,6.8-6.8
			C341.3,160.1,338.3,157,334.5,157z"/>
	</g>
</g>
<g>
	<g>
		<path d="M334.5,177.5H232.1c-3.8,0-6.8,3.1-6.8,6.8s3.1,6.8,6.8,6.8h102.4c3.8,0,6.8-3.1,6.8-6.8S338.3,177.5,334.5,177.5z"/>
	</g>
</g>
<g>
	<g>
		<path d="M95.6,109.2c-3.8,0-6.8,3.1-6.8,6.8v191.1c0,3.8,3.1,6.8,6.8,6.8s6.8-3.1,6.8-6.8V116.1
			C102.4,112.3,99.3,109.2,95.6,109.2z"/>
	</g>
</g>
<g>
	<g>
		<path d="M163.8,109.2c-3.8,0-6.8,3.1-6.8,6.8v191.1c0,3.8,3.1,6.8,6.8,6.8s6.8-3.1,6.8-6.8V116.1
			C170.7,112.3,167.6,109.2,163.8,109.2z"/>
	</g>
</g>
<g>
	<g>
		<path d="M116.1,109.2c-3.8,0-6.8,3.1-6.8,6.8v34.1c0,7.5-6.1,13.7-13.7,13.7s-13.7-6.1-13.7-13.7v-34.1c0-3.8-3.1-6.8-6.8-6.8
			s-6.8,3.1-6.8,6.8v34.1c0,15.1,12.2,27.3,27.3,27.3s27.3-12.2,27.3-27.3v-34.1C122.9,112.3,119.8,109.2,116.1,109.2z"/>
	</g>
</g>
<g>
	<g>
		<path d="M163.8,109.2c-15.1,0-27.3,12.2-27.3,27.3v81.9c0,3.8,3.1,6.8,6.8,6.8h20.5c3.8,0,6.8-3.1,6.8-6.8V116.1
			C170.7,112.3,167.6,109.2,163.8,109.2z M157,211.6h-6.8v-75.1c0-5,2.7-9.5,6.8-11.8V211.6z"/>
	</g>
</g>
</svg>
