<?xml version="1.0" encoding="UTF-8" standalone="no"?>
<!-- Created with Inkscape (http://www.inkscape.org/) -->

<svg
   xmlns:dc="http://purl.org/dc/elements/1.1/"
   xmlns:cc="http://creativecommons.org/ns#"
   xmlns:rdf="http://www.w3.org/1999/02/22-rdf-syntax-ns#"
   xmlns:svg="http://www.w3.org/2000/svg"
   xmlns="http://www.w3.org/2000/svg"
   xmlns:sodipodi="http://sodipodi.sourceforge.net/DTD/sodipodi-0.dtd"
   xmlns:inkscape="http://www.inkscape.org/namespaces/inkscape"
   width="135.48389mm"
   height="133.18794mm"
   viewBox="0 0 135.48389 133.18794"
   version="1.1"
   id="svg1012"
   inkscape:version="0.92.3 (2405546, 2018-03-11)"
   sodipodi:docname="navigate_active.svg">
  <defs
     id="defs1006" />
  <sodipodi:namedview
     id="base"
     pagecolor="#ffffff"
     bordercolor="#666666"
     borderopacity="1.0"
     inkscape:pageopacity="0.0"
     inkscape:pageshadow="2"
     inkscape:zoom="0.35"
     inkscape:cx="2610.3183"
     inkscape:cy="208.83661"
     inkscape:document-units="mm"
     inkscape:current-layer="layer1"
     showgrid="false"
     inkscape:window-width="3840"
     inkscape:window-height="2066"
     inkscape:window-x="-11"
     inkscape:window-y="-11"
     inkscape:window-maximized="1" />
  <metadata
     id="metadata1009">
    <rdf:RDF>
      <cc:Work
         rdf:about="">
        <dc:format>image/svg+xml</dc:format>
        <dc:type
           rdf:resource="http://purl.org/dc/dcmitype/StillImage" />
        <dc:title></dc:title>
      </cc:Work>
    </rdf:RDF>
  </metadata>
  <g
     inkscape:label="Layer 1"
     inkscape:groupmode="layer"
     id="layer1"
     transform="translate(584.81338,-70.900076)">
    <g
       id="g1032"
       transform="matrix(0.26458333,0,0,0.26458333,-584.80632,69.467624)"
       style="fill:#ffffff">
	<g
   id="g1030"
   style="fill:#ffffff">
		<g
   id="g1028"
   style="fill:#ffffff">
			<path
   id="path1014"
   d="m 168,351.5 c 21.1,29.7 42.1,56.3 56.1,73.4 2,2.5 3.9,4.8 5.8,7 h -42.1 c -4.7,0 -8.5,3.8 -8.5,8.5 0,4.7 3.8,8.5 8.5,8.5 h 136.5 c 4.7,0 8.5,-3.8 8.5,-8.5 0,-4.7 -3.8,-8.5 -8.5,-8.5 h -42.1 c 1.8,-2.2 3.7,-4.5 5.8,-7 13.9,-17.1 35,-43.7 56.1,-73.4 20.9,-28.9 39.8,-59.3 56.4,-90.9 17.4,-34.2 26.3,-62.6 26.3,-84.4 0.1,-45.3 -17.9,-88.8 -50,-120.8 -2.1,-2.2 -5.3,-3.1 -8.3,-2.3 -3,0.8 -5.3,3.1 -6.1,6.1 -0.8,3 0.1,6.2 2.3,8.3 28.9,28.8 45,68 45,108.8 0,19.1 -8.2,44.9 -24.4,76.7 -16.2,30.9 -34.6,60.5 -55.1,88.7 -20.8,29.3 -41.6,55.6 -55.4,72.5 -4.6,5.6 -8.7,10.6 -12.2,14.8 -1.6,1.9 -4,2.9 -6.5,2.9 -2.5,0 -4.9,-1.1 -6.5,-2.9 -3.5,-4.2 -7.6,-9.2 -12.2,-14.8 C 223.6,397.3 202.8,371 182,341.7 161.5,313.5 143.1,283.8 126.9,253 c -16.2,-31.8 -24.4,-57.6 -24.4,-76.7 0,-61.8 37,-117.6 93.9,-141.7 38.2,-16 81.3,-16 119.6,0 2.8,1.2 6,0.8 8.5,-1 2.4,-1.8 3.7,-4.8 3.3,-7.9 -0.4,-3.1 -2.3,-5.6 -5.1,-6.8 C 235.8,-17.8 135.6,23 99,109.8 c -8.9,21 -13.5,43.7 -13.4,66.5 0,21.8 8.8,50.2 26.3,84.5 16.3,31.4 35.1,61.8 56.1,90.7 z"
   inkscape:connector-curvature="0"
   style="fill:#ffffff" />

			<path
   id="path1016"
   d="m 256,99.2 c 4.7,0 8.5,-3.8 8.5,-8.5 0,-4.7 -3.8,-8.5 -8.5,-8.5 -40.7,0 -75.8,28.8 -83.7,68.7 -7.9,39.9 13.4,79.9 51,95.5 37.6,15.6 81,2.4 103.6,-31.4 22.6,-33.8 18.2,-79 -10.6,-107.7 -2.1,-2.2 -5.3,-3.1 -8.3,-2.3 -3,0.8 -5.3,3.1 -6.1,6.1 -0.8,3 0.1,6.2 2.3,8.3 23,23 26.6,59.1 8.5,86.2 C 294.6,232.7 260,243 229.9,230.5 199.8,218 182.7,186 189,154.1 c 6.3,-31.9 34.4,-54.9 67,-54.9 z"
   inkscape:connector-curvature="0"
   style="fill:#ffffff" />

			<path
   id="path1018"
   d="m 508.8,471 -52.5,-93.9 c -4.7,-8.3 -13.6,-13.5 -23.2,-13.4 h -60.8 c -4.7,0 -8.5,3.8 -8.5,8.5 0,4.7 3.8,8.5 8.5,8.5 h 60.8 c 3.4,-0.1 6.6,1.7 8.3,4.7 l 52.5,93.9 c 1.4,2.4 1.4,5.5 -0.1,7.9 -1.7,2.9 -4.9,4.6 -8.3,4.5 h -459 c -3.4,0.1 -6.5,-1.6 -8.3,-4.5 -1.5,-2.4 -1.5,-5.4 -0.1,-7.9 l 52.5,-93.9 c 1.7,-2.9 4.9,-4.7 8.3,-4.7 h 60.8 c 4.7,0 8.5,-3.8 8.5,-8.5 0,-4.7 -3.8,-8.5 -8.5,-8.5 H 78.9 c -9.6,-0.1 -18.5,5.1 -23.2,13.4 L 3.2,471 c -4.4,7.7 -4.3,17.2 0.3,24.8 4.8,8.1 13.6,13.1 23,13 h 459.1 c 9.4,0.1 18.2,-4.8 23,-13 4.5,-7.6 4.6,-17.1 0.2,-24.8 z"
   inkscape:connector-curvature="0"
   style="fill:#ffffff" />

			<path
   id="path1020"
   d="M 418.1,406.4 H 384 c -1.7,0 -3.3,0.5 -4.7,1.4 l -25.6,17.1 c -3.9,2.6 -5,7.9 -2.4,11.8 2.6,3.9 7.9,5 11.8,2.4 l 23.4,-15.6 h 31.6 c 4.7,0 8.5,-3.8 8.5,-8.5 0.1,-4.8 -3.7,-8.6 -8.5,-8.6 z"
   inkscape:connector-curvature="0"
   style="fill:#ffffff" />

			<path
   id="path1022"
   d="m 366.9,466.1 c 0,4.7 3.8,8.5 8.5,8.5 h 68.3 c 4.7,0 8.5,-3.8 8.5,-8.5 0,-4.7 -3.8,-8.5 -8.5,-8.5 h -68.3 c -4.6,0 -8.5,3.8 -8.5,8.5 z"
   inkscape:connector-curvature="0"
   style="fill:#ffffff" />

			<path
   id="path1024"
   d="m 153.6,440.5 c 3.8,0 7.1,-2.5 8.2,-6.1 1.1,-3.6 -0.3,-7.5 -3.4,-9.6 l -25.6,-17.1 c -1.4,-0.9 -3.1,-1.4 -4.7,-1.4 H 93.9 c -4.7,0 -8.5,3.8 -8.5,8.5 0,4.7 3.8,8.5 8.5,8.5 h 31.6 l 23.5,15.6 c 1.3,1.1 2.9,1.6 4.6,1.6 z"
   inkscape:connector-curvature="0"
   style="fill:#ffffff" />

			<path
   id="path1026"
   d="m 68.3,457.6 c -4.7,0 -8.5,3.8 -8.5,8.5 0,4.7 3.8,8.5 8.5,8.5 h 68.3 c 4.7,0 8.5,-3.8 8.5,-8.5 0,-4.7 -3.8,-8.5 -8.5,-8.5 z"
   inkscape:connector-curvature="0"
   style="fill:#ffffff" />

		</g>

	</g>

</g>
  </g>
</svg>
